<?xml version="1.0"?>
<svg width="640" height="180" xmlns="http://www.w3.org/2000/svg" xmlns:svg="http://www.w3.org/2000/svg"
    xmlns:xlink="http://www.w3.org/1999/xlink" fill="currentColor" stroke="currentColor">
    <defs>
        <symbol enable-background="new 0 0 460 460" id="svg_5" version="1.1" viewBox="0 0 460 460" x="0px"
            fill="currentColor" stroke="currentColor" xml:space="preserve" xmlns="http://www.w3.org/2000/svg"
            xmlns:xlink="http://www.w3.org/1999/xlink" y="0px">

            <g id="svg_4">
                <g>
                    <path
                        d="m369.635,0l-279.27,0c-16.77,0 -30.365,13.595 -30.365,30.365l0,399.27c0,16.77 13.595,30.365 30.365,30.365l279.27,0c16.77,0 30.365,-13.595 30.365,-30.365l0,-399.27c0,-16.77 -13.595,-30.365 -30.365,-30.365zm-261.431,343.61l0,-43.196c0,-3.451 2.797,-6.248 6.248,-6.248l43.196,0c3.451,0 6.248,2.797 6.248,6.248l0,43.196c0,3.451 -2.797,6.248 -6.248,6.248l-43.196,0c-3.451,0 -6.248,-2.798 -6.248,-6.248zm0,-87l0,-43.196c0,-3.451 2.797,-6.248 6.248,-6.248l43.196,0c3.451,0 6.248,2.797 6.248,6.248l0,43.196c0,3.451 -2.797,6.248 -6.248,6.248l-43.196,0c-3.451,0 -6.248,-2.798 -6.248,-6.248zm200.687,164.39l-157.782,0c-11.046,0 -20,-8.954 -20,-20c0,-11.046 8.954,-20 20,-20l157.782,0c11.046,0 20,8.954 20,20c0,11.046 -8.954,20 -20,20zm-100.489,-126.835l43.196,0c3.451,0 6.248,2.797 6.248,6.248l0,43.196c0,3.451 -2.797,6.248 -6.248,6.248l-43.196,0c-3.451,0 -6.248,-2.797 -6.248,-6.248l0,-43.196c0,-3.45 2.797,-6.248 6.248,-6.248zm-6.248,-37.555l0,-43.196c0,-3.451 2.797,-6.248 6.248,-6.248l43.196,0c3.451,0 6.248,2.797 6.248,6.248l0,43.196c0,3.451 -2.797,6.248 -6.248,6.248l-43.196,0c-3.451,0 -6.248,-2.798 -6.248,-6.248zm143.394,93.248l-43.196,0c-3.451,0 -6.248,-2.797 -6.248,-6.248l0,-43.196c0,-3.451 2.797,-6.248 6.248,-6.248l43.196,0c3.451,0 6.248,2.797 6.248,6.248l0,43.196l0,0c0,3.451 -2.797,6.248 -6.248,6.248zm0,-87l-43.196,0c-3.451,0 -6.248,-2.797 -6.248,-6.248l0,-43.196c0,-3.451 2.797,-6.248 6.248,-6.248l43.196,0c3.451,0 6.248,2.797 6.248,6.248l0,43.196l0,0c0,3.451 -2.797,6.248 -6.248,6.248zm8.452,-113.221c0,11.799 -9.565,21.363 -21.363,21.363l-205.273,0c-11.799,0 -21.364,-9.565 -21.364,-21.363l0,-87.274c0,-11.798 9.565,-21.363 21.364,-21.363l205.273,0c11.798,0 21.363,9.565 21.363,21.363l0,87.274z" />
                </g>
            </g>
        </symbol>
    </defs>
    <g class="layer" fill="currentColor" stroke="currentColor">
        <title>Layer 1</title>
        <g id="svg_7" fill="currentColor" stroke="currentColor">
            <text font-family="Helvetica" font-size="24" id="svg_1" stroke-width="0" fill="currentColor"
                stroke="currentColor" text-anchor="middle" transform="matrix(3.18926, 0, 0, 3.06738, -339.023, -329.07)"
                x="174.574178" xml:space="preserve" y="138.677089">COST</text>
            <text font-family="Helvetica" font-size="24" id="svg_2" stroke-width="0" text-anchor="middle"
                transform="matrix(3.19466, 0, 0, 3.07257, -339.795, -368.799)" x="221.079442" xml:space="preserve"
                y="169.418112">CALCULATOR</text>
            <use id="svg_6" transform="matrix(0.576963, 0, 0, 0.554914, 478.512, 419.835)" x="-1039.220327"
                xlink:href="#svg_5" y="-678.860893" />
        </g>
    </g>
</svg>